<svg width="1282" height="342" viewBox="0 0 1282 342" fill="none" xmlns="http://www.w3.org/2000/svg">
<path d="M1281.62 4.20874C1280.06 7.01469 1278.66 9.97652 1277.41 13.0942C1276.17 15.5884 1275.08 18.7061 1274.14 22.4474C1273.52 25.8769 1273.2 29.4623 1273.2 33.2035C1273.2 33.2035 1273.2 36.633 1273.2 43.492C1273.2 50.351 1273.05 59.3923 1272.74 70.6161C1272.74 81.5281 1272.74 94.1549 1272.74 108.496C1272.74 122.526 1272.74 136.868 1272.74 151.521V269.371C1272.74 279.347 1271.18 288.7 1268.06 297.43C1264.94 306.16 1260.58 313.798 1254.97 320.345C1249.35 326.892 1242.5 332.037 1234.39 335.778C1226.28 339.519 1217.24 341.39 1207.27 341.39H1202.59C1173.91 341.39 1151.46 335.31 1135.25 323.151C1119.03 310.68 1110.93 292.286 1110.93 267.968V61.263C1110.93 50.351 1110.3 41.3096 1109.06 34.1388C1108.12 26.9681 1107.03 21.2003 1105.78 16.8355C1104.22 11.5354 1102.51 7.32645 1100.64 4.20874H1170.79C1168.61 7.32645 1166.89 11.5354 1165.64 16.8355C1164.08 21.2003 1162.84 26.9681 1161.9 34.1388C1160.97 41.3096 1160.5 50.351 1160.5 61.263V266.097C1160.5 274.827 1161.12 282.933 1162.37 290.415C1163.93 297.898 1166.27 304.289 1169.38 309.589C1172.81 314.889 1177.18 319.098 1182.48 322.216C1188.09 325.334 1194.79 326.892 1202.59 326.892H1207.27C1215.06 326.892 1222.07 325.489 1228.31 322.684C1234.55 319.566 1239.85 315.357 1244.21 310.057C1248.89 304.757 1252.32 298.677 1254.5 291.818C1256.99 284.959 1258.24 277.477 1258.24 269.371V33.6712C1258.24 29.3064 1257.77 25.4092 1256.84 21.9797C1255.9 18.2385 1254.97 15.1208 1254.03 12.6266C1252.78 9.50887 1251.38 6.70292 1249.82 4.20874H1281.62Z" fill="url(#paint0_linear_2_102)"/>
<path d="M1053.61 283.868C1057.35 297.898 1061.09 308.654 1064.83 316.136C1068.57 323.307 1074.03 329.075 1081.2 333.44C1076.83 336.246 1072.16 338.116 1067.17 339.052C1062.49 339.987 1058.44 340.299 1055.01 339.987C1043.79 339.675 1034.12 336.557 1026.01 330.634C1017.91 324.398 1012.14 314.733 1008.71 301.639L975.04 157.133L957.269 187.063V278.724V279.191C957.269 290.103 957.737 299.301 958.672 306.783C959.608 313.954 960.855 319.722 962.414 324.086C963.661 329.387 965.375 333.44 967.558 336.246H897.409C899.28 333.44 900.995 329.387 902.553 324.086C903.801 319.722 904.892 313.954 905.827 306.783C907.074 299.301 907.698 290.103 907.698 279.191V60.7953C907.698 49.8833 907.074 40.8419 905.827 33.6712C904.892 26.5004 903.801 20.7326 902.553 16.3678C900.995 11.0677 899.28 7.01469 897.409 4.20874H967.558C965.375 7.01469 963.661 11.0677 962.414 16.3678C960.855 20.7326 959.608 26.5004 958.672 33.6712C957.737 40.8419 957.269 49.8833 957.269 60.7953V161.809C976.911 130.632 992.344 106.002 1003.57 87.9194C1014.79 69.8367 1023.05 56.2746 1028.35 47.2332C1034.59 36.633 1038.64 29.774 1040.51 26.6563C1042.69 21.3562 1044.1 16.212 1044.72 11.2236C1045.03 8.72944 1045.19 6.39115 1045.19 4.20874H1071.85C1069.97 6.39115 1068.1 8.72944 1066.23 11.2236C1064.67 13.406 1062.8 15.9002 1060.62 18.7061C1058.75 21.5121 1057.04 24.318 1055.48 27.124C1053.3 30.5535 1049.4 36.9448 1043.79 46.2979C1038.8 54.404 1031.47 66.0954 1021.81 81.3722C1012.45 96.649 999.826 117.226 983.926 143.103C987.667 143.727 991.876 144.818 996.553 146.377C1001.23 147.624 1005.91 149.962 1010.58 153.391C1015.57 156.509 1020.09 161.186 1024.14 167.421C1028.2 173.345 1031.47 181.295 1033.97 191.272L1053.61 283.868Z" fill="url(#paint1_linear_2_102)"/>
<path d="M860.066 283.868C864.119 297.898 868.016 308.654 871.758 316.136C875.499 323.307 880.955 329.075 888.126 333.44C883.761 336.246 878.461 338.116 872.225 339.052C866.302 339.987 861.625 340.455 858.196 340.455C846.972 339.831 837.151 336.557 828.733 330.634C820.627 324.398 815.015 314.733 811.897 301.639L783.37 162.277C774.017 161.653 766.067 158.692 759.52 153.392V279.191C759.52 290.103 759.988 299.301 760.923 306.783C761.858 313.954 763.105 319.722 764.664 324.086C765.911 329.387 767.626 333.44 769.808 336.246H699.66C701.53 333.44 703.245 329.387 704.804 324.086C706.051 319.722 707.142 313.954 708.078 306.783C709.325 299.301 709.948 290.103 709.948 279.191V61.263C709.948 50.351 709.325 41.3096 708.078 34.1388C707.142 26.6563 706.051 20.7326 704.804 16.3678C703.245 11.0677 701.53 7.01469 699.66 4.20874H782.435C794.906 4.20874 806.13 5.61171 816.106 8.41766C826.395 11.2236 835.124 15.7443 842.295 21.9797C849.778 27.9034 855.546 35.6977 859.599 45.3626C863.652 55.0275 865.678 66.8749 865.678 80.9046C865.678 103.04 860.222 121.123 849.31 135.153C838.398 149.183 822.965 157.912 803.012 161.342C806.442 162.901 810.183 165.083 814.236 167.889C818.289 170.695 822.186 174.28 825.927 178.645C829.98 183.01 833.566 188.31 836.683 194.545C840.113 200.469 842.763 207.484 844.634 215.59L860.066 283.868ZM764.664 140.297C765.599 142.791 767.938 145.285 771.679 147.78C775.732 149.962 780.253 151.053 785.241 151.053C791.476 151.053 796.621 149.183 800.674 145.441C804.727 141.7 807.844 136.712 810.027 130.476C812.521 124.241 814.08 116.914 814.703 108.496C815.639 99.7668 816.106 90.7254 816.106 81.3722C816.106 69.2131 814.703 59.0806 811.897 50.9745C809.403 42.5567 805.974 35.8536 801.609 30.8652C797.244 25.5651 792.256 21.8239 786.644 19.6414C781.344 17.1473 776.044 15.9002 770.744 15.9002H759.52V99.1432C761.702 96.9608 764.508 95.2461 767.938 93.999C771.367 92.7519 774.797 92.2843 778.226 92.596C781.656 92.9078 784.773 93.999 787.579 95.8696C790.385 97.4285 792.568 100.079 794.126 103.82C789.138 102.885 784.306 103.352 779.629 105.223C775.264 107.093 771.679 109.899 768.873 113.641C766.067 117.07 764.196 121.123 763.261 125.8C762.326 130.476 762.793 135.309 764.664 140.297Z" fill="url(#paint2_linear_2_102)"/>
<path d="M665.462 279.192C665.462 289.792 665.93 298.833 666.865 306.316C667.488 310.057 668.112 313.331 668.736 316.137C669.359 318.942 669.983 321.592 670.606 324.087C672.165 330.01 673.88 334.063 675.75 336.246H605.602C607.784 333.128 609.499 329.075 610.746 324.087C611.37 321.592 611.993 318.942 612.617 316.137C613.24 313.331 613.864 310.057 614.487 306.316C615.423 298.833 615.89 289.792 615.89 279.192V278.724V168.824C615.89 158.224 615.423 149.183 614.487 141.7C613.864 137.959 613.24 134.685 612.617 131.879C611.993 129.073 611.37 126.423 610.746 123.929C609.499 118.941 607.784 114.888 605.602 111.77H675.75C673.88 113.953 672.165 118.006 670.606 123.929C669.983 126.423 669.359 129.073 668.736 131.879C668.112 134.685 667.488 137.959 666.865 141.7C665.93 149.183 665.462 158.224 665.462 168.824V278.724V279.192ZM640.676 95.8698L612.149 48.1687L640.676 0L668.736 48.1687L640.676 95.8698Z" fill="url(#paint3_linear_2_102)"/>
<path d="M496.893 4.20874C508.429 4.20874 519.029 6.39114 528.694 10.7559C538.671 15.1207 547.244 21.2003 554.415 28.9946C561.586 36.4771 567.198 45.3626 571.251 55.6511C575.304 65.6278 577.33 76.3839 577.33 87.9194V252.535C577.33 264.07 575.304 274.982 571.251 285.271C567.198 295.248 561.586 304.133 554.415 311.927C547.244 319.41 538.671 325.334 528.694 329.698C519.029 334.063 508.429 336.246 496.893 336.246H399.153C401.023 333.44 402.738 329.387 404.297 324.086C405.544 319.722 406.635 313.954 407.571 306.783C408.818 299.301 409.441 290.103 409.441 279.191V61.263C409.441 50.351 408.818 41.3096 407.571 34.1388C406.635 26.6563 405.544 20.7326 404.297 16.3678C402.738 11.0677 401.023 7.01469 399.153 4.20874H496.893ZM527.759 87.9194C527.759 82.3075 526.979 75.4486 525.42 67.3425C524.173 58.9247 521.367 50.9745 517.002 43.492C512.949 35.6977 507.182 29.1505 499.699 23.8504C492.528 18.5502 483.175 15.9002 471.64 15.9002H459.013V272.644C462.442 270.462 465.56 268.903 468.366 267.968C473.354 266.72 478.343 266.72 483.331 267.968C488.631 269.215 492.061 272.488 493.62 277.788C488.631 276.853 483.799 277.321 479.122 279.191C474.757 281.062 471.172 283.868 468.366 287.609C465.56 291.039 463.69 295.092 462.754 299.768C461.819 304.445 462.442 309.277 464.625 314.266C465.56 316.76 467.743 319.098 471.172 321.281C474.913 323.463 479.278 324.554 484.267 324.554H488.008C494.867 324.554 500.79 321.904 505.779 316.604C510.767 311.304 514.82 304.913 517.938 297.43C521.367 289.636 523.861 281.686 525.42 273.579C526.979 265.162 527.759 258.147 527.759 252.535V87.9194Z" fill="url(#paint4_linear_2_102)"/>
<path d="M312.454 336.246C314.012 333.44 315.415 329.854 316.663 325.489C317.598 321.748 318.221 317.227 318.533 311.927C319.157 306.315 318.689 299.612 317.13 291.818L278.315 91.193L227.808 311.46C227.184 314.577 226.872 317.539 226.872 320.345C226.872 323.151 226.872 325.801 226.872 328.295C226.872 331.101 227.028 333.751 227.34 336.246H202.086C203.645 334.063 205.048 331.569 206.295 328.763C207.542 326.269 208.634 323.463 209.569 320.345C210.816 316.916 212.063 313.174 213.31 309.121L271.767 56.1187L266.155 27.5916C263.661 19.1738 261.635 13.2501 260.076 9.82065L257.27 4.20874H311.051L340.045 152.924L369.04 301.639C369.975 306.939 371.223 311.772 372.781 316.136C374.34 320.189 375.899 323.775 377.458 326.892C379.017 330.322 380.732 333.44 382.602 336.246H312.454Z" fill="url(#paint5_linear_2_102)"/>
<path d="M177.71 199.222C177.71 210.134 178.177 219.331 179.113 226.814C180.048 233.984 181.295 239.752 182.854 244.117C184.101 249.417 185.816 253.47 187.998 256.276H117.85C119.72 253.47 121.435 249.417 122.994 244.117C124.241 239.752 125.332 233.984 126.268 226.814C127.515 219.331 128.138 210.134 128.138 199.222V198.754V117.382H59.8602V199.222C59.8602 210.134 60.3278 219.331 61.2631 226.814C62.1984 233.984 63.4455 239.752 65.0044 244.117C66.2515 249.417 67.9662 253.47 70.1486 256.276H0C1.87063 253.47 3.58537 249.417 5.14423 244.117C6.39132 239.752 7.48252 233.984 8.41783 226.814C9.66492 219.331 10.2885 210.134 10.2885 199.222V61.263C10.2885 50.351 9.66492 41.3096 8.41783 34.1388C7.48252 26.6563 6.39132 20.7326 5.14423 16.3678C3.58537 11.0677 1.87063 7.01469 0 4.20874H70.1486C67.9662 7.32645 66.2515 11.5354 65.0044 16.8355C63.4455 21.2003 62.1984 27.124 61.2631 34.6065C60.3278 41.7772 59.8602 50.6627 59.8602 61.263V102.417H128.138V61.263C128.138 50.351 127.515 41.3096 126.268 34.1388C125.332 26.6563 124.241 20.7326 122.994 16.3678C121.435 11.0677 119.72 7.01469 117.85 4.20874H187.998C187.998 4.20874 187.375 5.14406 186.128 7.01468C185.192 8.88533 184.101 12.1589 182.854 16.8355C181.607 21.2003 180.36 26.9681 179.113 34.1388C178.177 41.3096 177.71 50.351 177.71 61.263V198.754V199.222ZM45.3628 324.554C38.8156 324.866 32.4243 325.957 26.1888 327.828C20.2652 329.387 15.1209 331.413 10.7561 333.907C12.6268 326.737 15.9004 320.813 20.5769 316.136C25.5653 311.148 30.8654 307.251 36.4773 304.445C42.4009 301.327 48.1687 299.145 53.7806 297.898C59.3925 296.339 64.0691 295.559 67.8103 295.559C74.6693 295.248 80.7489 295.715 86.049 296.962C91.6609 298.209 97.1169 299.768 102.417 301.639C107.717 303.198 113.173 304.601 118.785 305.848C124.709 307.095 131.412 307.563 138.894 307.251C145.13 306.939 150.586 305.848 155.262 303.977C159.939 302.107 164.46 299.924 168.824 297.43C166.642 305.224 163.057 311.616 158.068 316.604C153.392 321.592 148.247 325.489 142.636 328.295C137.024 331.101 131.568 333.128 126.268 334.375C120.967 335.622 116.603 336.246 113.173 336.246C106.314 336.557 100.39 336.09 95.4021 334.843C90.4138 333.596 85.4254 332.193 80.4371 330.634C75.4487 328.763 70.1486 327.204 64.5367 325.957C59.2366 324.71 52.8453 324.242 45.3628 324.554Z" fill="url(#paint6_linear_2_102)"/>
<defs>
<linearGradient id="paint0_linear_2_102" x1="1191.13" y1="4.20874" x2="1191.13" y2="341.39" gradientUnits="userSpaceOnUse">
<stop stop-color="#039FEF"/>
<stop offset="1" stop-color="#0153EA"/>
</linearGradient>
<linearGradient id="paint1_linear_2_102" x1="989.304" y1="4.20874" x2="989.304" y2="340.104" gradientUnits="userSpaceOnUse">
<stop stop-color="#039FEF"/>
<stop offset="1" stop-color="#0153EA"/>
</linearGradient>
<linearGradient id="paint2_linear_2_102" x1="793.893" y1="4.20874" x2="793.893" y2="340.454" gradientUnits="userSpaceOnUse">
<stop stop-color="#039FEF"/>
<stop offset="1" stop-color="#0153EA"/>
</linearGradient>
<linearGradient id="paint3_linear_2_102" x1="640.676" y1="0" x2="640.676" y2="336.246" gradientUnits="userSpaceOnUse">
<stop stop-color="#039FEF"/>
<stop offset="1" stop-color="#0153EA"/>
</linearGradient>
<linearGradient id="paint4_linear_2_102" x1="488.242" y1="4.20874" x2="488.242" y2="336.246" gradientUnits="userSpaceOnUse">
<stop stop-color="#039FEF"/>
<stop offset="1" stop-color="#0153EA"/>
</linearGradient>
<linearGradient id="paint5_linear_2_102" x1="292.344" y1="4.20874" x2="292.344" y2="336.246" gradientUnits="userSpaceOnUse">
<stop stop-color="#039FEF"/>
<stop offset="1" stop-color="#0153EA"/>
</linearGradient>
<linearGradient id="paint6_linear_2_102" x1="93.9991" y1="4.20874" x2="93.9991" y2="336.339" gradientUnits="userSpaceOnUse">
<stop stop-color="#039FEF"/>
<stop offset="1" stop-color="#0153EA"/>
</linearGradient>
</defs>
</svg>
