<svg width="342" height="342" viewBox="0 0 342 342" fill="none" xmlns="http://www.w3.org/2000/svg">
<path d="M256.664 200.449C256.664 211.666 257.144 221.119 258.106 228.81C259.067 236.181 260.349 242.11 261.951 246.596C263.233 252.044 264.996 256.21 267.239 259.094H195.135C197.058 256.21 198.82 252.044 200.423 246.596C201.704 242.11 202.826 236.181 203.787 228.81C205.069 221.119 205.71 211.666 205.71 200.449V199.969V116.328H135.529V200.449C135.529 211.666 136.01 221.119 136.971 228.81C137.932 236.181 139.214 242.11 140.816 246.596C142.098 252.044 143.861 256.21 146.104 259.094H74C75.9228 256.21 77.6853 252.044 79.2876 246.596C80.5695 242.11 81.6911 236.181 82.6525 228.81C83.9343 221.119 84.5753 211.666 84.5753 200.449V58.6447C84.5753 47.4285 83.9343 38.1351 82.6525 30.7644C81.6911 23.0733 80.5695 16.9845 79.2876 12.4981C77.6853 7.05018 75.9228 2.88417 74 0H146.104C143.861 3.20462 142.098 7.53087 140.816 12.9787C139.214 17.4652 137.932 23.554 136.971 31.2451C136.01 38.6158 135.529 47.749 135.529 58.6447V100.946H205.71V58.6447C205.71 47.4285 205.069 38.1351 203.787 30.7644C202.826 23.0733 201.704 16.9845 200.423 12.4981C198.82 7.05018 197.058 2.88417 195.135 0H267.239C267.239 0 266.598 0.961392 265.316 2.88416C264.355 4.80695 263.233 8.17181 261.951 12.9787C260.67 17.4652 259.388 23.3938 258.106 30.7644C257.144 38.1351 256.664 47.4285 256.664 58.6447V199.969V200.449ZM120.627 329.275C113.898 329.596 107.328 330.718 100.919 332.64C94.8301 334.243 89.5424 336.326 85.056 338.889C86.9787 331.519 90.3436 325.43 95.1505 320.623C100.278 315.496 105.726 311.49 111.494 308.606C117.583 305.401 123.511 303.158 129.28 301.876C135.048 300.274 139.855 299.472 143.701 299.472C150.751 299.152 157 299.633 162.448 300.915C168.216 302.196 173.824 303.799 179.272 305.721C184.72 307.324 190.328 308.766 196.096 310.048C202.185 311.33 209.075 311.81 216.766 311.49C223.175 311.169 228.784 310.048 233.59 308.125C238.397 306.202 243.044 303.959 247.531 301.395C245.287 309.407 241.602 315.976 236.475 321.104C231.668 326.231 226.38 330.237 220.612 333.121C214.843 336.005 209.235 338.088 203.787 339.37C198.34 340.652 193.853 341.293 190.328 341.293C183.278 341.613 177.189 341.133 172.062 339.851C166.934 338.569 161.807 337.127 156.679 335.525C151.552 333.602 146.104 331.999 140.336 330.718C134.888 329.436 128.318 328.955 120.627 329.275Z" fill="url(#paint0_linear_2_92)"/>
<defs>
<linearGradient id="paint0_linear_2_92" x1="170.62" y1="0" x2="170.62" y2="341.389" gradientUnits="userSpaceOnUse">
<stop stop-color="#039FEF"/>
<stop offset="1" stop-color="#0153EA"/>
</linearGradient>
</defs>
</svg>
